<svg width="227" height="227" viewBox="0 0 227 227" fill="none" xmlns="http://www.w3.org/2000/svg">
<rect x="3" y="3" width="220.77" height="220.77" rx="5" fill="#3FA4FF"/>
<rect x="3" y="3" width="220.77" height="220.77" rx="5" stroke="black" stroke-width="6"/>
<path d="M17.0723 186.483C17.2263 186.513 17.4817 186.53 18.1152 186.456L18.1348 186.454C19.2732 186.332 21.1817 185.658 24.167 184.063C26.7285 182.696 29.9344 180.734 33.9111 178.095L35.6631 176.923C43.1521 171.864 72.5978 153.233 76.752 150.901V150.902C80.3144 148.898 83.9802 147.378 88.1387 146.208V146.207C90.0631 145.652 92.0611 145.564 96.5127 145.531H96.5273C99.0981 145.531 100.725 145.555 102.108 145.69C103.533 145.83 104.662 146.085 106.236 146.49L106.237 146.489C113.704 148.39 119.405 151.137 131.427 158.334L131.434 158.339C139.623 163.289 145.781 166.527 150.212 168.238C152.432 169.096 154.116 169.529 155.345 169.64C156.58 169.751 157.084 169.516 157.268 169.375C157.423 169.249 157.469 169.176 157.486 169.143C157.504 169.11 157.548 169.014 157.564 168.772C157.603 168.195 157.465 167.199 156.971 165.304L156.97 165.302C155.771 160.689 153.871 155.99 149.071 146.007L149.07 146.005C142.259 131.797 140.667 127.283 140.351 120.393L140.35 120.384C140.176 116.19 140.527 113.665 141.876 110.388V110.387C144.054 104.996 149.35 99.2378 159.225 91.0098L161.262 89.3301C164.429 86.7403 170.586 82.0331 180.422 74.6992V74.6982C189.254 68.1069 196.485 62.3462 201.719 57.7686C204.337 55.4783 206.435 53.5037 207.976 51.8828C209.564 50.2118 210.414 49.0668 210.718 48.4199C211.505 46.7173 211.303 45.6561 211.027 45.2012C210.818 44.8554 210.263 44.3769 208.85 44.5654C208.823 44.5733 208.78 44.5854 208.718 44.6045C208.556 44.6547 208.325 44.7289 208.024 44.8291C207.425 45.0288 206.581 45.3185 205.517 45.6895C203.39 46.4307 200.405 47.4887 196.78 48.7871C189.532 51.3834 179.737 54.9348 169.143 58.8184H169.144C158.558 62.7213 148.67 66.3337 141.268 69.0127C137.567 70.3519 134.484 71.4585 132.245 72.252C130.13 73.0014 128.643 73.5155 128.17 73.6445L128.171 73.6455C128.161 73.6481 128.152 73.6507 128.143 73.6533C128.14 73.654 128.137 73.6546 128.135 73.6553H128.134C124.827 74.5697 121.761 74.4819 119.056 73.0625C116.38 71.6584 114.368 69.1127 112.816 65.751C112.075 64.1477 110.429 59.6635 109.12 55.8662L109.116 55.8555C107.452 50.9344 105.918 47.1415 104.48 44.3789C103.011 41.5563 101.766 40.0566 100.795 39.4189L100.75 39.3896C100.745 39.3868 100.659 39.3339 100.454 39.2764C100.254 39.2201 100.001 39.1762 99.7236 39.1572C99.119 39.1159 98.6541 39.2057 98.4727 39.2842L98.4561 39.292L98.4717 39.2861C98.4683 39.2908 98.3625 39.3523 98.1465 39.5381C97.8984 39.7514 97.5988 40.0456 97.2803 40.3945C96.6355 41.1011 96.0293 41.9079 95.6816 42.5273C95.6645 42.5664 95.6036 42.7039 95.4834 42.9951C95.3458 43.3285 95.1616 43.7868 94.9365 44.3584C94.4869 45.5 93.8808 47.0717 93.1621 48.9609C91.7251 52.7383 89.8437 57.7705 87.8711 63.1436L87.8691 63.1484C85.8761 68.5323 83.9647 73.6267 82.4893 77.5059C81.0393 81.3179 79.9601 84.0909 79.666 84.7041L79.6562 84.7256L79.6455 84.7471L79.3662 85.2695C77.9326 87.8385 75.849 89.8355 73.2109 91.082H73.2119C73.2098 91.0831 73.2072 91.0839 73.2051 91.085C73.1978 91.0884 73.1908 91.0923 73.1836 91.0957L73.1826 91.0947C72.7548 91.2989 71.9128 91.5963 70.9287 91.9248C69.8567 92.2826 68.4464 92.7327 66.8008 93.2451C63.5072 94.2707 59.2407 95.5529 54.7881 96.8506L54.7842 96.8516L51.0986 97.9258C47.6015 98.9538 44.6756 99.8414 42.3936 100.564C40.8711 101.047 39.6472 101.453 38.7363 101.775C37.7732 102.116 37.2899 102.321 37.1475 102.398L37.1406 102.402L37.1328 102.406C35.2425 103.418 34.4052 104.546 34.1709 105.388C33.9711 106.106 34.1042 106.982 35.1328 107.961L35.1357 107.963C36.0734 108.859 37.1079 109.469 41.3184 111.175L41.3174 111.176C45.9549 112.987 49.7958 115.01 53.8535 117.705L53.8604 117.71C55.8083 119.015 57.154 119.985 58.0703 120.875C59.0817 121.857 59.602 122.769 59.9316 123.886L59.9336 123.891C60.1287 124.558 60.3973 125.481 60.1592 126.649C59.9419 127.715 59.3486 128.783 58.4688 130.043C56.7017 132.574 53.0881 136.812 46.2041 144.878L46.2012 144.881C40.7709 151.222 35.6706 157.198 34.8467 158.162C34.2336 158.88 32.7418 160.634 31.1426 162.492L29.5361 164.351C24.978 169.66 21.5305 173.921 19.125 177.219C16.6644 180.592 15.4646 182.736 15.1426 183.888C14.9601 184.589 15.2288 185.456 16.0869 186.025L16.2676 186.135C16.7375 186.392 16.9289 186.456 17.0723 186.483ZM73.5723 138.089C72.7749 138.342 71.8376 138.52 70.9268 138.315C69.9145 138.088 69.1423 137.432 68.7471 136.507L68.6865 136.355C68.3209 135.396 68.3872 134.252 68.8291 133.36C69.2368 132.538 70.2039 131.223 71.4658 129.634C72.7807 127.978 74.5608 125.848 76.7402 123.316V123.315C78.8781 120.826 80.4523 119 81.5986 117.627C82.6611 116.355 83.2907 115.547 83.6484 115.01C82.8068 114.262 81.2205 113.351 78.8799 112.388L78.873 112.385C77.6611 111.881 76.5308 111.242 75.7959 110.371C75.4067 109.91 75.0728 109.318 74.9707 108.603C74.8671 107.876 75.0278 107.196 75.3379 106.616V106.615C75.3391 106.613 75.3406 106.611 75.3418 106.608C75.3442 106.604 75.3462 106.599 75.3486 106.595V106.596C75.9154 105.536 76.7746 104.937 78.0537 104.398C79.2554 103.892 81.1384 103.311 84.1162 102.441H84.1191C87.1866 101.55 88.7867 101.052 89.7168 100.659C90.16 100.472 90.3498 100.349 90.4365 100.281C90.4911 100.239 90.5351 100.194 90.6133 100.081C90.6413 100.019 90.7192 99.8457 90.8613 99.5088C91.042 99.0808 91.2777 98.5003 91.5527 97.8057C92.1014 96.4198 92.7953 94.6097 93.498 92.7139V92.7129C94.2131 90.7668 94.9374 88.9027 95.5264 87.4531C95.8204 86.7295 96.0837 86.101 96.2979 85.6133C96.487 85.1826 96.697 84.7226 96.8682 84.4463L96.9043 84.3867L96.9453 84.3301C97.5736 83.4585 98.5432 82.7036 99.8203 82.6387C101.087 82.5743 102.132 83.2166 102.865 84.0068L102.864 84.0078C103.503 84.6874 104.083 85.7568 104.616 86.9199C105.186 88.1622 105.809 89.7516 106.478 91.6396L106.481 91.6504L106.484 91.6611C106.961 93.0567 107.401 93.8065 107.759 94.1904C107.991 94.44 108.176 94.5295 108.405 94.5518C108.438 94.5435 108.479 94.5336 108.528 94.5205C108.749 94.4615 109.065 94.3681 109.477 94.2402C110.295 93.9859 111.425 93.614 112.79 93.1494C115.516 92.2219 119.136 90.9418 122.991 89.5352V89.5342C127.183 87.9859 130.781 86.7095 133.384 85.8301C134.682 85.3913 135.748 85.0464 136.521 84.8154C136.904 84.7011 137.242 84.6068 137.51 84.543C137.64 84.5119 137.789 84.479 137.935 84.457C138.006 84.4462 138.11 84.4328 138.229 84.4277C138.307 84.4244 138.577 84.4133 138.896 84.501L138.924 84.5088L138.952 84.5176C140.106 84.8718 140.77 85.8004 141.044 86.6387C141.32 87.4827 141.302 88.5001 140.833 89.4072L140.822 89.4277L140.812 89.4473C140.459 90.0926 139.896 90.7651 139.239 91.4463C138.56 92.1513 137.681 92.9661 136.603 93.8965C134.446 95.7579 131.4 98.163 127.356 101.21L127.355 101.211C124.14 103.632 121.778 105.48 120.086 107.07C118.389 108.664 117.522 109.857 117.117 110.919C116.737 111.916 116.689 112.997 117.069 114.547C117.465 116.161 118.286 118.133 119.54 120.854C120.855 123.69 121.73 125.74 122.193 127.215C122.424 127.95 122.589 128.654 122.621 129.304C122.653 129.963 122.555 130.754 122.053 131.458L122.039 131.479L122.024 131.498L121.884 131.671C121.16 132.498 120.155 132.709 119.365 132.704C118.54 132.699 117.65 132.47 116.771 132.152C115.21 131.588 113.231 130.573 110.845 129.148L109.807 128.519C105.981 126.19 103.145 124.967 100.747 124.565C98.4427 124.179 96.4138 124.529 94.1221 125.647C94.1116 125.653 94.0974 125.661 94.0791 125.671C94.0414 125.692 93.9918 125.72 93.9307 125.755C93.8079 125.826 93.6495 125.92 93.457 126.035C93.0727 126.265 92.5707 126.571 91.9824 126.934C90.8066 127.658 89.301 128.599 87.7305 129.589C84.5808 131.574 81.2059 133.735 79.7031 134.746H79.7021C77.2618 136.404 75.1963 137.573 73.5723 138.089Z" fill="url(#paint0_linear_382_4260)" stroke="black" stroke-width="4"/>
<defs>
<linearGradient id="paint0_linear_382_4260" x1="113.18" y1="37.1473" x2="113.18" y2="188.509" gradientUnits="userSpaceOnUse">
<stop stop-color="#FFBD29"/>
<stop offset="1" stop-color="#FF78EC"/>
</linearGradient>
</defs>
</svg>
